# xmcd
#
# Track frame offsets:
#	150
#	14550
#	28665
#	46085
#	59530
#	73312
#	88625
#	103057
#	119537
#	136887
#	154375
#	187455
#
# Disc length: 2546 seconds
#
# Revision: 2
# Processed by: cddbd v1.4PL0 Copyright (c) Steve Scherf et al.
# Submitted via: dBpowerAMP V4.0
#
DISCID=b509f00c
DTITLE=Kevin Denney - Kevin Denney
DYEAR=2002
DGENRE=Country
TTITLE0=It Don't Matter
TTITLE1=Correct Me If I'm Right
TTITLE2=That's Just Jessie
TTITLE3=Cadillac Tears
TTITLE4=It'll Go Away
TTITLE5=Takin' Off The Edge
TTITLE6=My Kind Of Song
TTITLE7=We Rhyme
TTITLE8=That's What I Believe
TTITLE9=Ain't Skeered
TTITLE10=Daddy Was A Navy Man
TTITLE11=DATA
EXTD=
EXTT0=
EXTT1=
EXTT2=
EXTT3=
EXTT4=
EXTT5=
EXTT6=
EXTT7=
EXTT8=
EXTT9=
EXTT10=
EXTT11=
PLAYORDER=
